<svg width="320" height="54" viewBox="0 0 320 54" fill="none" xmlns="http://www.w3.org/2000/svg">
<path fill-rule="evenodd" clip-rule="evenodd" d="M22.0016 48.0001C21.9575 49.1038 22.8571 50 23.9616 50L71.9616 50L119.962 50C121.066 50 121.966 49.1038 121.922 48.0001C121.42 35.4661 116.221 23.549 107.317 14.6447C97.9401 5.26784 85.2224 0 71.9616 0C58.7008 0 45.9831 5.26784 36.6063 14.6447C27.7019 23.5491 22.5029 35.4662 22.0016 48.0001ZM0.00156005 48.0004C0.237028 42.1168 1.51022 36.3155 3.76759 30.8657C6.28032 24.7994 9.9633 19.2875 14.6062 14.6445C19.2492 10.0016 24.7611 6.31864 30.8274 3.80591C36.6411 1.39778 42.8549 0.109675 49.1419 0.00660134C49.5945 -0.000819482 49.9616 0.366864 49.9616 0.819558C49.9616 1.19648 49.7043 1.52412 49.3396 1.61927C47.1262 2.19673 44.9502 2.92666 42.8275 3.80591C36.7612 6.31864 31.2493 10.0016 26.6063 14.6445C21.9634 19.2875 18.2804 24.7994 15.7677 30.8657C13.5103 36.3155 12.2372 42.1168 12.0017 48.0004C11.9575 49.1041 11.0663 49.9999 9.96169 49.9999H1.96157C0.856996 49.9999 -0.0426105 49.1041 0.00156005 48.0004Z" fill="white"/>
<path d="M156.528 49V10.792H142.704V3.56H178.608V10.792H164.848V49H156.528ZM185.435 49.768C181.851 49.768 178.971 48.9573 176.795 47.336C174.619 45.672 173.531 43.368 173.531 40.424C173.531 37.48 174.448 35.176 176.283 33.512C178.118 31.848 180.912 30.6533 184.667 29.928L195.995 27.688C195.995 25.256 195.44 23.4427 194.331 22.248C193.222 21.0107 191.579 20.392 189.403 20.392C187.44 20.392 185.883 20.8613 184.731 21.8C183.622 22.696 182.854 23.9973 182.427 25.704L174.107 25.32C174.79 21.6933 176.454 18.92 179.099 17C181.744 15.0373 185.179 14.056 189.403 14.056C194.267 14.056 197.936 15.2933 200.411 17.768C202.928 20.2 204.187 23.6987 204.187 28.264V40.68C204.187 41.576 204.336 42.1947 204.635 42.536C204.976 42.8773 205.467 43.048 206.107 43.048H207.195V49C206.939 49.0853 206.512 49.1493 205.915 49.192C205.36 49.2347 204.784 49.256 204.187 49.256C202.779 49.256 201.52 49.0427 200.411 48.616C199.302 48.1467 198.448 47.3573 197.851 46.248C197.254 45.096 196.955 43.5387 196.955 41.576L197.659 42.088C197.318 43.5813 196.571 44.9253 195.419 46.12C194.31 47.272 192.902 48.168 191.195 48.808C189.488 49.448 187.568 49.768 185.435 49.768ZM187.099 43.816C188.934 43.816 190.512 43.4533 191.835 42.728C193.158 42.0027 194.182 41 194.907 39.72C195.632 38.44 195.995 36.9253 195.995 35.176V33.256L187.163 35.048C185.328 35.432 184.006 36.008 183.195 36.776C182.427 37.5013 182.043 38.4613 182.043 39.656C182.043 40.9787 182.47 42.0027 183.323 42.728C184.219 43.4533 185.478 43.816 187.099 43.816ZM223.148 49.768C219.735 49.768 216.769 49.0427 214.252 47.592C211.735 46.0987 209.772 44.008 208.364 41.32C206.999 38.632 206.316 35.496 206.316 31.912C206.316 28.328 206.999 25.2133 208.364 22.568C209.772 19.88 211.735 17.7893 214.252 16.296C216.769 14.8027 219.735 14.056 223.148 14.056C226.049 14.056 228.631 14.568 230.892 15.592C233.153 16.616 234.988 18.088 236.396 20.008C237.847 21.8853 238.743 24.1893 239.084 26.92L230.636 27.368C230.295 25.192 229.441 23.5493 228.076 22.44C226.753 21.288 225.111 20.712 223.148 20.712C220.503 20.712 218.455 21.7147 217.004 23.72C215.553 25.6827 214.828 28.4133 214.828 31.912C214.828 35.4533 215.553 38.2053 217.004 40.168C218.455 42.1307 220.503 43.112 223.148 43.112C225.153 43.112 226.817 42.536 228.14 41.384C229.505 40.232 230.337 38.44 230.636 36.008L239.084 36.392C238.743 39.1227 237.868 41.4907 236.46 43.496C235.052 45.5013 233.217 47.0587 230.956 48.168C228.695 49.2347 226.092 49.768 223.148 49.768ZM255.808 49.768C252.437 49.768 249.472 49.0427 246.912 47.592C244.395 46.0987 242.432 44.008 241.024 41.32C239.659 38.632 238.976 35.496 238.976 31.912C238.976 28.2853 239.659 25.1493 241.024 22.504C242.432 19.816 244.395 17.7467 246.912 16.296C249.472 14.8027 252.437 14.056 255.808 14.056C259.179 14.056 262.123 14.8027 264.64 16.296C267.157 17.7467 269.099 19.816 270.464 22.504C271.872 25.1493 272.576 28.2853 272.576 31.912C272.576 35.496 271.872 38.632 270.464 41.32C269.099 44.008 267.157 46.0987 264.64 47.592C262.123 49.0427 259.179 49.768 255.808 49.768ZM255.808 43.112C258.453 43.112 260.48 42.1307 261.888 40.168C263.339 38.2053 264.064 35.4533 264.064 31.912C264.064 28.4133 263.339 25.6827 261.888 23.72C260.48 21.7147 258.453 20.712 255.808 20.712C253.163 20.712 251.115 21.7147 249.664 23.72C248.213 25.6827 247.488 28.4133 247.488 31.912C247.488 35.4533 248.213 38.2053 249.664 40.168C251.115 42.1307 253.163 43.112 255.808 43.112ZM307.042 53.096L303.458 48.552C302.477 48.9787 301.283 49.32 299.875 49.576C298.509 49.8747 297.016 50.024 295.395 50.024C290.957 50.024 287.139 49 283.939 46.952C280.738 44.904 278.264 42.088 276.514 38.504C274.808 34.92 273.954 30.8667 273.954 26.344C273.954 21.864 274.765 17.832 276.386 14.248C278.05 10.664 280.482 7.82666 283.682 5.736C286.925 3.60266 290.829 2.536 295.395 2.536C300.045 2.536 303.971 3.60266 307.171 5.736C310.371 7.82666 312.781 10.664 314.403 14.248C316.067 17.832 316.899 21.864 316.899 26.344C316.899 30.5253 316.173 34.28 314.722 37.608C313.272 40.8933 311.203 43.6027 308.514 45.736L314.403 53.096H307.042ZM295.395 42.792C296.12 42.792 296.76 42.7493 297.315 42.664C297.869 42.5787 298.36 42.4507 298.787 42.28L292.451 34.344H299.747L303.587 39.4C305.123 38.0347 306.296 36.2853 307.107 34.152C307.917 31.976 308.323 29.3733 308.323 26.344C308.323 23.3573 307.853 20.6267 306.915 18.152C306.019 15.6347 304.61 13.608 302.691 12.072C300.813 10.536 298.381 9.768 295.395 9.768C292.451 9.768 290.019 10.536 288.098 12.072C286.221 13.608 284.813 15.6347 283.875 18.152C282.978 20.6267 282.53 23.3573 282.53 26.344C282.53 29.288 283 32.0187 283.939 34.536C284.877 37.0107 286.285 39.016 288.163 40.552C290.082 42.0453 292.493 42.792 295.395 42.792Z" fill="white"/>
</svg>
