<svg width="122" height="50" viewBox="0 0 122 50" fill="none" xmlns="http://www.w3.org/2000/svg">
<path fill-rule="evenodd" clip-rule="evenodd" d="M14.6447 14.6447C5.26784 24.0215 0 36.7392 0 50H11C11 36.7392 16.2678 24.0215 25.6447 14.6447C33.7159 6.57343 44.2624 1.5466 55.5 0.303248C53.6822 0.102125 51.8464 0 50 0C36.7392 0 24.0215 5.26784 14.6447 14.6447Z" fill="white"/>
<path fill-rule="evenodd" clip-rule="evenodd" d="M14.6447 14.6447C5.26784 24.0215 0 36.7392 0 50H11C11 36.7392 16.2678 24.0215 25.6447 14.6447C33.7159 6.57343 44.2624 1.5466 55.5 0.303248C53.6822 0.102125 51.8464 0 50 0C36.7392 0 24.0215 5.26784 14.6447 14.6447Z" fill="#18181B"/>
<path d="M22 50C22 36.7392 27.2678 24.0215 36.6447 14.6447C46.0215 5.26784 58.7392 1.00116e-06 72 0C85.2608 -1.00116e-06 97.9785 5.26784 107.355 14.6447C116.732 24.0215 122 36.7392 122 50L72 50L22 50Z" fill="#18181B"/>
</svg>
