<svg width="487" height="50" viewBox="0 0 487 50" fill="none" xmlns="http://www.w3.org/2000/svg">
<path fill-rule="evenodd" clip-rule="evenodd" d="M22.0016 48.0001C21.9575 49.1038 22.8571 50 23.9616 50L71.9616 50L119.962 50C121.066 50 121.966 49.1038 121.922 48.0001C121.42 35.4661 116.221 23.549 107.317 14.6447C97.9401 5.26784 85.2224 0 71.9616 0C58.7008 0 45.9831 5.26784 36.6063 14.6447C27.7019 23.5491 22.5029 35.4662 22.0016 48.0001ZM0.00156005 48.0004C0.237028 42.1168 1.51022 36.3155 3.76759 30.8657C6.28032 24.7994 9.9633 19.2875 14.6062 14.6445C19.2492 10.0016 24.7611 6.31864 30.8274 3.80591C36.6411 1.39778 42.8549 0.109675 49.1419 0.00660134C49.5945 -0.000819482 49.9616 0.366864 49.9616 0.819558C49.9616 1.19648 49.7043 1.52412 49.3396 1.61927C47.1262 2.19673 44.9502 2.92666 42.8275 3.80591C36.7612 6.31864 31.2493 10.0016 26.6063 14.6445C21.9634 19.2875 18.2804 24.7994 15.7677 30.8657C13.5103 36.3155 12.2372 42.1168 12.0017 48.0004C11.9575 49.1041 11.0663 49.9999 9.96169 49.9999H1.96157C0.856996 49.9999 -0.0426105 49.1041 0.00156005 48.0004Z" fill="white"/>
<path d="M156.528 49V10.792H142.704V3.56H178.608V10.792H164.848V49H156.528ZM185.435 49.768C181.851 49.768 178.971 48.9573 176.795 47.336C174.619 45.672 173.531 43.368 173.531 40.424C173.531 37.48 174.448 35.176 176.283 33.512C178.118 31.848 180.912 30.6533 184.667 29.928L195.995 27.688C195.995 25.256 195.44 23.4427 194.331 22.248C193.222 21.0107 191.579 20.392 189.403 20.392C187.44 20.392 185.883 20.8613 184.731 21.8C183.622 22.696 182.854 23.9973 182.427 25.704L174.107 25.32C174.79 21.6933 176.454 18.92 179.099 17C181.744 15.0373 185.179 14.056 189.403 14.056C194.267 14.056 197.936 15.2933 200.411 17.768C202.928 20.2 204.187 23.6987 204.187 28.264V40.68C204.187 41.576 204.336 42.1947 204.635 42.536C204.976 42.8773 205.467 43.048 206.107 43.048H207.195V49C206.939 49.0853 206.512 49.1493 205.915 49.192C205.36 49.2347 204.784 49.256 204.187 49.256C202.779 49.256 201.52 49.0427 200.411 48.616C199.302 48.1467 198.448 47.3573 197.851 46.248C197.254 45.096 196.955 43.5387 196.955 41.576L197.659 42.088C197.318 43.5813 196.571 44.9253 195.419 46.12C194.31 47.272 192.902 48.168 191.195 48.808C189.488 49.448 187.568 49.768 185.435 49.768ZM187.099 43.816C188.934 43.816 190.512 43.4533 191.835 42.728C193.158 42.0027 194.182 41 194.907 39.72C195.632 38.44 195.995 36.9253 195.995 35.176V33.256L187.163 35.048C185.328 35.432 184.006 36.008 183.195 36.776C182.427 37.5013 182.043 38.4613 182.043 39.656C182.043 40.9787 182.47 42.0027 183.323 42.728C184.219 43.4533 185.478 43.816 187.099 43.816ZM223.148 49.768C219.735 49.768 216.769 49.0427 214.252 47.592C211.735 46.0987 209.772 44.008 208.364 41.32C206.999 38.632 206.316 35.496 206.316 31.912C206.316 28.328 206.999 25.2133 208.364 22.568C209.772 19.88 211.735 17.7893 214.252 16.296C216.769 14.8027 219.735 14.056 223.148 14.056C226.049 14.056 228.631 14.568 230.892 15.592C233.153 16.616 234.988 18.088 236.396 20.008C237.847 21.8853 238.743 24.1893 239.084 26.92L230.636 27.368C230.295 25.192 229.441 23.5493 228.076 22.44C226.753 21.288 225.111 20.712 223.148 20.712C220.503 20.712 218.455 21.7147 217.004 23.72C215.553 25.6827 214.828 28.4133 214.828 31.912C214.828 35.4533 215.553 38.2053 217.004 40.168C218.455 42.1307 220.503 43.112 223.148 43.112C225.153 43.112 226.817 42.536 228.14 41.384C229.505 40.232 230.337 38.44 230.636 36.008L239.084 36.392C238.743 39.1227 237.868 41.4907 236.46 43.496C235.052 45.5013 233.217 47.0587 230.956 48.168C228.695 49.2347 226.092 49.768 223.148 49.768ZM255.808 49.768C252.437 49.768 249.472 49.0427 246.912 47.592C244.395 46.0987 242.432 44.008 241.024 41.32C239.659 38.632 238.976 35.496 238.976 31.912C238.976 28.2853 239.659 25.1493 241.024 22.504C242.432 19.816 244.395 17.7467 246.912 16.296C249.472 14.8027 252.437 14.056 255.808 14.056C259.179 14.056 262.123 14.8027 264.64 16.296C267.157 17.7467 269.099 19.816 270.464 22.504C271.872 25.1493 272.576 28.2853 272.576 31.912C272.576 35.496 271.872 38.632 270.464 41.32C269.099 44.008 267.157 46.0987 264.64 47.592C262.123 49.0427 259.179 49.768 255.808 49.768ZM255.808 43.112C258.453 43.112 260.48 42.1307 261.888 40.168C263.339 38.2053 264.064 35.4533 264.064 31.912C264.064 28.4133 263.339 25.6827 261.888 23.72C260.48 21.7147 258.453 20.712 255.808 20.712C253.163 20.712 251.115 21.7147 249.664 23.72C248.213 25.6827 247.488 28.4133 247.488 31.912C247.488 35.4533 248.213 38.2053 249.664 40.168C251.115 42.1307 253.163 43.112 255.808 43.112ZM275.697 49V3.56H290.802C298.055 3.56 303.623 5.544 307.506 9.512C311.431 13.4373 313.394 19.048 313.394 26.344C313.394 33.5973 311.474 39.1867 307.634 43.112C303.794 47.0373 298.311 49 291.186 49H275.697ZM284.017 41.768H290.802C295.538 41.768 299.058 40.488 301.362 37.928C303.666 35.368 304.818 31.5067 304.818 26.344C304.818 21.096 303.666 17.192 301.362 14.632C299.058 12.072 295.538 10.792 290.802 10.792H284.017V41.768ZM315.78 49V14.824H323.972V49H315.78ZM315.652 10.28V2.984H324.164V10.28H315.652ZM337.847 49L325.367 14.824H334.007L342.711 40.744L351.415 14.824H360.055L347.575 49H337.847ZM361.412 49V14.824H369.604V49H361.412ZM361.284 10.28V2.984H369.796V10.28H361.284ZM388.023 49.768C384.652 49.768 381.815 49.2773 379.511 48.296C377.25 47.3147 375.5 45.9493 374.263 44.2C373.026 42.4507 372.322 40.4667 372.151 38.248L380.535 37.864C380.834 39.656 381.58 41.0427 382.775 42.024C383.97 43.0053 385.74 43.496 388.087 43.496C390.007 43.496 391.5 43.1973 392.567 42.6C393.676 41.96 394.231 40.9787 394.231 39.656C394.231 38.888 394.039 38.248 393.655 37.736C393.271 37.224 392.546 36.776 391.479 36.392C390.412 36.008 388.834 35.624 386.743 35.24C383.244 34.6427 380.492 33.9173 378.487 33.064C376.482 32.168 375.052 31.0587 374.199 29.736C373.388 28.4133 372.983 26.7707 372.983 24.808C372.983 21.608 374.199 19.0267 376.631 17.064C379.106 15.0587 382.711 14.056 387.447 14.056C390.519 14.056 393.1 14.568 395.191 15.592C397.282 16.5733 398.903 17.9387 400.055 19.688C401.25 21.3947 401.996 23.3573 402.295 25.576L394.039 25.96C393.826 24.808 393.442 23.8053 392.887 22.952C392.332 22.0987 391.586 21.4587 390.647 21.032C389.708 20.5627 388.599 20.328 387.319 20.328C385.399 20.328 383.948 20.712 382.967 21.48C381.986 22.248 381.495 23.272 381.495 24.552C381.495 25.448 381.708 26.1947 382.135 26.792C382.604 27.3893 383.351 27.88 384.375 28.264C385.399 28.6053 386.764 28.9253 388.471 29.224C392.055 29.7787 394.871 30.504 396.919 31.4C399.01 32.2533 400.482 33.3627 401.335 34.728C402.231 36.0507 402.679 37.6507 402.679 39.528C402.679 41.704 402.06 43.56 400.823 45.096C399.628 46.632 397.922 47.8053 395.703 48.616C393.527 49.384 390.967 49.768 388.023 49.768ZM405.233 49V14.824H413.425V49H405.233ZM405.105 10.28V2.984H413.617V10.28H405.105ZM432.803 49.768C429.432 49.768 426.467 49.0427 423.907 47.592C421.39 46.0987 419.427 44.008 418.019 41.32C416.654 38.632 415.971 35.496 415.971 31.912C415.971 28.2853 416.654 25.1493 418.019 22.504C419.427 19.816 421.39 17.7467 423.907 16.296C426.467 14.8027 429.432 14.056 432.803 14.056C436.174 14.056 439.118 14.8027 441.635 16.296C444.152 17.7467 446.094 19.816 447.459 22.504C448.867 25.1493 449.571 28.2853 449.571 31.912C449.571 35.496 448.867 38.632 447.459 41.32C446.094 44.008 444.152 46.0987 441.635 47.592C439.118 49.0427 436.174 49.768 432.803 49.768ZM432.803 43.112C435.448 43.112 437.475 42.1307 438.883 40.168C440.334 38.2053 441.059 35.4533 441.059 31.912C441.059 28.4133 440.334 25.6827 438.883 23.72C437.475 21.7147 435.448 20.712 432.803 20.712C430.158 20.712 428.11 21.7147 426.659 23.72C425.208 25.6827 424.483 28.4133 424.483 31.912C424.483 35.4533 425.208 38.2053 426.659 40.168C428.11 42.1307 430.158 43.112 432.803 43.112ZM452.053 49V14.824H459.477L459.797 24.424L458.837 24.04C459.178 21.6507 459.882 19.7307 460.949 18.28C462.015 16.8293 463.317 15.7627 464.853 15.08C466.389 14.3973 468.074 14.056 469.909 14.056C472.426 14.056 474.538 14.6107 476.245 15.72C477.994 16.8293 479.317 18.3653 480.213 20.328C481.109 22.248 481.557 24.488 481.557 27.048V49H473.365V29.672C473.365 27.752 473.173 26.1307 472.789 24.808C472.405 23.4853 471.765 22.4827 470.869 21.8C470.015 21.0747 468.863 20.712 467.413 20.712C465.237 20.712 463.487 21.48 462.165 23.016C460.885 24.552 460.245 26.7707 460.245 29.672V49H452.053Z" fill="white"/>
</svg>
